<svg width="133" height="42" viewBox="0 0 133 42" fill="none" xmlns="http://www.w3.org/2000/svg">
<g clip-path="url(#clip0_212_1128)">
<path d="M107.915 36.1735V16.4578H102.58V13.6535H118.117L117.198 16.4578H111.874V36.1735H107.915Z" fill="#0071BC"/>
<path d="M133 41.6249H47.3809V38.8885H132.113L133 41.6249Z" fill="#0071BC"/>
<path d="M39.7725 38.8885H28.5215V41.6249H39.7725V38.8885Z" fill="#0071BC"/>
<path d="M84.0223 29.8576C84.0223 31.6652 83.4557 33.5407 82.3151 34.5874C81.1709 35.6377 79.3018 36.1699 76.6969 36.1699H70.2031V13.6535H76.5203C81.1709 13.6535 83.5035 16.3184 83.5035 19.0906C83.5035 21.8627 82.2195 23.8382 79.6403 24.5955C82.5653 25.2671 84.0149 27.1926 84.0259 29.8576M76.215 23.3059C78.5881 23.3059 79.7654 21.877 79.7654 19.5228C79.7654 17.1687 78.5697 16.3399 76.1671 16.3399H74.1031V23.3059H76.2113H76.215ZM80.0781 29.5825C80.0781 27.3963 78.8382 25.8316 76.3474 25.8316H74.1068V33.3121H76.5167C77.6609 33.3121 80.0781 32.7083 80.0781 29.579" fill="#0071BC"/>
<path d="M85.8984 36.1735V13.6535H89.574V29.4111L97.1679 13.6535H100.799V36.1735H97.1237V20.5517L89.4857 36.1735H85.8984Z" fill="#0071BC"/>
<path d="M114.027 36.1735L120.786 13.657H124.436L131.194 36.1735H127.287L125.878 31.7509H119.296L117.975 36.1735H114.023H114.027ZM122.64 19.455L119.998 29.2074H125.227L122.64 19.455Z" fill="#0071BC"/>
<path d="M28.5215 21.2411V35.9484H31.4649V22.9451H36.8328V35.9484H39.7725V21.2411H28.5215Z" fill="#0071BC"/>
<path d="M47.0097 21.4126C46.513 21.6519 46.0273 22.0663 45.5564 22.6665L45.0339 23.3024V21.2911H42.0391V41.6249H45.0339V34.0194L45.549 34.6231C46.4688 35.7234 47.6499 36.2592 49.1473 36.2592C52.3262 36.2592 53.9413 33.7658 53.9413 28.8609C53.9413 26.1102 53.5329 24.0811 52.7529 22.8415C51.9913 21.6377 50.7772 21.0339 49.0664 21.0339C48.1797 21.0339 47.488 21.1554 47.0097 21.4126ZM44.953 29.9433V27.5856C44.953 24.6456 45.9648 23.1666 47.9552 23.1666C49.0185 23.1666 49.7912 23.631 50.2511 24.542C50.6742 25.4208 50.8876 26.814 50.8876 28.8252C50.8876 30.6507 50.6742 31.9403 50.2511 32.7655C49.7912 33.6586 48.9486 34.1087 47.7345 34.1087C45.8838 34.1087 44.953 32.7155 44.953 29.9469" fill="#0071BC"/>
<path d="M57.3545 23.0488C56.3096 24.4241 55.7871 26.3174 55.7871 28.6395C55.7871 30.9615 56.328 32.8548 57.3912 34.248C58.4545 35.6234 59.9777 36.295 62.0675 36.295C64.1573 36.295 65.6989 35.6234 66.7291 34.248C67.7666 32.8548 68.2964 30.9793 68.2964 28.6395C68.2964 26.2996 67.763 24.4277 66.7291 23.0488C65.7026 21.6734 64.1757 21.0018 62.0675 21.0018C59.9593 21.0018 58.381 21.6734 57.3545 23.0488ZM58.7268 28.6716C58.7268 24.9064 59.8526 23.013 62.0675 23.013C64.2824 23.013 65.3457 24.9064 65.3457 28.6716C65.3457 32.4369 64.2383 34.3481 62.0675 34.3481C59.8968 34.3481 58.7268 32.4369 58.7268 28.6716Z" fill="#0071BC"/>
<path d="M1.03784 26.1388C0.000305414 32.5083 2.74868 40.4389 9.13948 41.8428C9.6141 40.4532 10.1218 38.6027 10.4309 36.4593C11.2661 30.6542 10.659 22.9844 4.69131 15.9219C3.07613 19.137 1.63756 22.4914 1.04152 26.1388" fill="#7DAC5D"/>
<mask id="mask0_212_1128" style="mask-type:luminance" maskUnits="userSpaceOnUse" x="0" y="15" width="11" height="27">
<path d="M1.03784 26.1388C0.000305414 32.5083 2.74868 40.4389 9.13948 41.8428C9.6141 40.4532 10.1218 38.6027 10.4309 36.4593C11.2661 30.6542 10.659 22.9844 4.69131 15.9219C3.07613 19.137 1.63756 22.4914 1.04152 26.1388" fill="white"/>
</mask>
<g mask="url(#mask0_212_1128)">
<path d="M11.2621 15.9219H0V41.8428H11.2621V15.9219Z" fill="#7DAC5D"/>
</g>
<path d="M20.0799 21.5376C17.3683 13.8357 11.8679 7.3233 11.1541 0C10.6979 4.83337 8.1335 9.30594 5.67578 14.0107C10.2564 19.0334 12.1806 24.4027 12.6994 29.2932C14.7966 25.0528 17.6774 22.7665 20.0799 21.5376Z" fill="#D87644"/>
<mask id="mask1_212_1128" style="mask-type:luminance" maskUnits="userSpaceOnUse" x="5" y="0" width="16" height="30">
<path d="M20.0799 21.5376C17.3683 13.8357 11.8679 7.3233 11.1541 0C10.6979 4.83337 8.1335 9.30594 5.67578 14.0107C10.2564 19.0334 12.1806 24.4027 12.6994 29.2932C14.7966 25.0528 17.6774 22.7665 20.0799 21.5376Z" fill="white"/>
</mask>
<g mask="url(#mask1_212_1128)">
<path d="M20.0838 0H5.67969V29.2932H20.0838V0Z" fill="#D87644"/>
</g>
<path d="M21.2955 26.1388C21.1373 25.185 20.9092 24.2598 20.6553 23.3345C17.6899 25.0421 14.0033 28.7323 12.5647 36.6772C12.2299 38.9778 12.1711 40.5711 12.2925 42.0036C19.3308 41.1784 22.3772 32.7977 21.2992 26.1388" fill="#0071BC"/>
<mask id="mask2_212_1128" style="mask-type:luminance" maskUnits="userSpaceOnUse" x="12" y="23" width="10" height="20">
<path d="M21.2955 26.1388C21.1373 25.185 20.9092 24.2598 20.6553 23.3345C17.6899 25.0421 14.0033 28.7323 12.5647 36.6772C12.2299 38.9778 12.1711 40.5711 12.2925 42.0036C19.3308 41.1784 22.3772 32.7977 21.2992 26.1388" fill="white"/>
</mask>
<g mask="url(#mask2_212_1128)">
<path d="M22.3741 23.331H12.168V42H22.3741V23.331Z" fill="#0071BC"/>
</g>
</g>
<defs>
<clipPath id="clip0_212_1128">
<rect width="133" height="42" fill="white"/>
</clipPath>
</defs>
</svg>
