<svg width="13" height="6" viewBox="0 0 13 6" fill="none" xmlns="http://www.w3.org/2000/svg">
<path d="M0.00047493 0.531477C7.34329e-05 0.461934 0.013401 0.392996 0.0396976 0.328616C0.0659943 0.264235 0.104741 0.205678 0.153715 0.156303C0.202838 0.106776 0.261281 0.0674651 0.325673 0.0406383C0.390065 0.0138114 0.459131 -5.34391e-07 0.528888 -5.31342e-07C0.598645 -5.28293e-07 0.667712 0.0138114 0.732104 0.0406383C0.796496 0.0674652 0.854939 0.106776 0.904062 0.156303L5.2212 4.47345C5.51844 4.77031 5.92135 4.93705 6.34144 4.93705C6.76153 4.93705 7.16445 4.77031 7.46168 4.47345L11.7788 0.156304C11.8783 0.0568016 12.0133 0.000901762 12.154 0.000901768C12.2947 0.000901774 12.4297 0.0568016 12.5292 0.156304C12.6287 0.255806 12.6846 0.39076 12.6846 0.531478C12.6846 0.672195 12.6287 0.807149 12.5292 0.906652L8.21203 5.22379C7.9666 5.46984 7.67505 5.66505 7.35406 5.79824C7.03307 5.93144 6.68897 6 6.34144 6C5.99392 6 5.64981 5.93144 5.32882 5.79824C5.00784 5.66505 4.71628 5.46984 4.47086 5.22379L0.153715 0.906651C0.104741 0.857276 0.0659943 0.798719 0.0396976 0.734339C0.013401 0.669958 7.34329e-05 0.60102 0.00047493 0.531477Z" fill="black"/>
</svg>
